<?xml version="1.0" encoding="UTF-8" standalone="no"?>
<!DOCTYPE svg PUBLIC "-//W3C//DTD SVG 1.1//EN"
 "http://www.w3.org/Graphics/SVG/1.1/DTD/svg11.dtd">
<!-- Generated by graphviz version 2.47.0 (20210316.0004)
 -->
<!-- Title: dependencies Pages: 1 -->
<svg width="1337pt" height="211pt"
 viewBox="0.00 0.00 1337.00 211.00" xmlns="http://www.w3.org/2000/svg" xmlns:xlink="http://www.w3.org/1999/xlink">
<g id="graph0" class="graph" transform="scale(1 1) rotate(0) translate(4 207)">
<title>dependencies</title>
<polygon fill="white" stroke="transparent" points="-4,4 -4,-207 1333,-207 1333,4 -4,4"/>
<text text-anchor="start" x="643.51" y="-42.4" font-family="Times-12" font-weight="bold" font-size="14.00">Legend</text>
<polygon fill="#ffffb3" stroke="transparent" points="430.5,-10 430.5,-30 450.5,-30 450.5,-10 430.5,-10"/>
<text text-anchor="start" x="454.13" y="-15.4" font-family="Times-12" font-size="14.00"> &#160;Declarations</text>
<polygon fill="#8dd3c7" stroke="transparent" points="543.5,-10 543.5,-30 563.5,-30 563.5,-10 543.5,-10"/>
<text text-anchor="start" x="567.23" y="-15.4" font-family="Times-12" font-size="14.00"> &#160;Module</text>
<polygon fill="#80b1d3" stroke="transparent" points="629.5,-10 629.5,-30 649.5,-30 649.5,-10 629.5,-10"/>
<text text-anchor="start" x="653.28" y="-15.4" font-family="Times-12" font-size="14.00"> &#160;Bootstrap</text>
<polygon fill="#fdb462" stroke="transparent" points="726.5,-10 726.5,-30 746.5,-30 746.5,-10 726.5,-10"/>
<text text-anchor="start" x="750.17" y="-15.4" font-family="Times-12" font-size="14.00"> &#160;Providers</text>
<polygon fill="#fb8072" stroke="transparent" points="822.5,-10 822.5,-30 842.5,-30 842.5,-10 822.5,-10"/>
<text text-anchor="start" x="846.23" y="-15.4" font-family="Times-12" font-size="14.00"> &#160;Exports</text>
<g id="clust1" class="cluster">
<title>cluster_AppModule</title>
<polygon fill="none" stroke="black" stroke-dasharray="1,5" points="8,-70 8,-195 1321,-195 1321,-70 8,-70"/>
</g>
<g id="clust3" class="cluster">
<title>cluster_AppModule_imports</title>
<polygon fill="none" stroke="black" points="248,-78 248,-130 1313,-130 1313,-78 248,-78"/>
</g>
<g id="clust6" class="cluster">
<title>cluster_AppModule_providers</title>
<polygon fill="none" stroke="black" points="16,-78 16,-130 240,-130 240,-78 16,-78"/>
</g>
<!-- CompetentiesModule -->
<g id="node1" class="node">
<title>CompetentiesModule</title>
<polygon fill="#8dd3c7" stroke="black" points="1305.04,-122 1302.04,-126 1281.04,-126 1278.04,-122 1168.96,-122 1168.96,-86 1305.04,-86 1305.04,-122"/>
<text text-anchor="middle" x="1237" y="-99.8" font-family="Times,serif" font-size="14.00">CompetentiesModule</text>
</g>
<!-- AppModule -->
<g id="node9" class="node">
<title>AppModule</title>
<polygon fill="#8dd3c7" stroke="black" points="765.66,-187 762.66,-191 741.66,-191 738.66,-187 682.34,-187 682.34,-151 765.66,-151 765.66,-187"/>
<text text-anchor="middle" x="724" y="-164.8" font-family="Times,serif" font-size="14.00">AppModule</text>
</g>
<!-- CompetentiesModule&#45;&gt;AppModule -->
<g id="edge1" class="edge">
<title>CompetentiesModule&#45;&gt;AppModule</title>
<path fill="none" stroke="black" d="M1237,-122.01C1237,-144.49 1237,-180 1237,-180 1237,-180 775.98,-180 775.98,-180"/>
<polygon fill="black" stroke="black" points="775.98,-176.5 765.98,-180 775.98,-183.5 775.98,-176.5"/>
</g>
<!-- DienstenModule -->
<g id="node2" class="node">
<title>DienstenModule</title>
<polygon fill="#8dd3c7" stroke="black" points="1150.81,-122 1147.81,-126 1126.81,-126 1123.81,-122 1041.19,-122 1041.19,-86 1150.81,-86 1150.81,-122"/>
<text text-anchor="middle" x="1096" y="-99.8" font-family="Times,serif" font-size="14.00">DienstenModule</text>
</g>
<!-- DienstenModule&#45;&gt;AppModule -->
<g id="edge2" class="edge">
<title>DienstenModule&#45;&gt;AppModule</title>
<path fill="none" stroke="black" d="M1096,-122.13C1096,-142.57 1096,-173 1096,-173 1096,-173 775.95,-173 775.95,-173"/>
<polygon fill="black" stroke="black" points="775.95,-169.5 765.95,-173 775.95,-176.5 775.95,-169.5"/>
</g>
<!-- LedenModule -->
<g id="node3" class="node">
<title>LedenModule</title>
<polygon fill="#8dd3c7" stroke="black" points="1023.03,-122 1020.03,-126 999.03,-126 996.03,-122 928.97,-122 928.97,-86 1023.03,-86 1023.03,-122"/>
<text text-anchor="middle" x="976" y="-99.8" font-family="Times,serif" font-size="14.00">LedenModule</text>
</g>
<!-- LedenModule&#45;&gt;AppModule -->
<g id="edge3" class="edge">
<title>LedenModule&#45;&gt;AppModule</title>
<path fill="none" stroke="black" d="M976,-122.27C976,-140.56 976,-166 976,-166 976,-166 775.9,-166 775.9,-166"/>
<polygon fill="black" stroke="black" points="775.9,-162.5 765.9,-166 775.9,-169.5 775.9,-162.5"/>
</g>
<!-- ProgressieModule -->
<g id="node4" class="node">
<title>ProgressieModule</title>
<polygon fill="#8dd3c7" stroke="black" points="910.86,-122 907.86,-126 886.86,-126 883.86,-122 793.14,-122 793.14,-86 910.86,-86 910.86,-122"/>
<text text-anchor="middle" x="852" y="-99.8" font-family="Times,serif" font-size="14.00">ProgressieModule</text>
</g>
<!-- ProgressieModule&#45;&gt;AppModule -->
<g id="edge4" class="edge">
<title>ProgressieModule&#45;&gt;AppModule</title>
<path fill="none" stroke="black" d="M852,-122.01C852,-138.05 852,-159 852,-159 852,-159 775.91,-159 775.91,-159"/>
<polygon fill="black" stroke="black" points="775.91,-155.5 765.91,-159 775.91,-162.5 775.91,-155.5"/>
</g>
<!-- RoosterModule -->
<g id="node5" class="node">
<title>RoosterModule</title>
<polygon fill="#8dd3c7" stroke="black" points="775.6,-122 772.6,-126 751.6,-126 748.6,-122 672.4,-122 672.4,-86 775.6,-86 775.6,-122"/>
<text text-anchor="middle" x="724" y="-99.8" font-family="Times,serif" font-size="14.00">RoosterModule</text>
</g>
<!-- RoosterModule&#45;&gt;AppModule -->
<g id="edge5" class="edge">
<title>RoosterModule&#45;&gt;AppModule</title>
<path fill="none" stroke="black" d="M724,-122.11C724,-122.11 724,-140.99 724,-140.99"/>
<polygon fill="black" stroke="black" points="720.5,-140.99 724,-150.99 727.5,-140.99 720.5,-140.99"/>
</g>
<!-- TypesGroepenModule -->
<g id="node6" class="node">
<title>TypesGroepenModule</title>
<polygon fill="#8dd3c7" stroke="black" points="653.96,-122 650.96,-126 629.96,-126 626.96,-122 512.04,-122 512.04,-86 653.96,-86 653.96,-122"/>
<text text-anchor="middle" x="583" y="-99.8" font-family="Times,serif" font-size="14.00">TypesGroepenModule</text>
</g>
<!-- TypesGroepenModule&#45;&gt;AppModule -->
<g id="edge6" class="edge">
<title>TypesGroepenModule&#45;&gt;AppModule</title>
<path fill="none" stroke="black" d="M583,-122.01C583,-138.05 583,-159 583,-159 583,-159 672.08,-159 672.08,-159"/>
<polygon fill="black" stroke="black" points="672.08,-162.5 682.08,-159 672.08,-155.5 672.08,-162.5"/>
</g>
<!-- TypesModule -->
<g id="node7" class="node">
<title>TypesModule</title>
<polygon fill="#8dd3c7" stroke="black" points="493.76,-122 490.76,-126 469.76,-126 466.76,-122 400.24,-122 400.24,-86 493.76,-86 493.76,-122"/>
<text text-anchor="middle" x="447" y="-99.8" font-family="Times,serif" font-size="14.00">TypesModule</text>
</g>
<!-- TypesModule&#45;&gt;AppModule -->
<g id="edge7" class="edge">
<title>TypesModule&#45;&gt;AppModule</title>
<path fill="none" stroke="black" d="M447,-122.27C447,-140.56 447,-166 447,-166 447,-166 672.23,-166 672.23,-166"/>
<polygon fill="black" stroke="black" points="672.23,-169.5 682.23,-166 672.23,-162.5 672.23,-169.5"/>
</g>
<!-- VliegtuigenModule -->
<g id="node8" class="node">
<title>VliegtuigenModule</title>
<polygon fill="#8dd3c7" stroke="black" points="381.65,-122 378.65,-126 357.65,-126 354.65,-122 256.35,-122 256.35,-86 381.65,-86 381.65,-122"/>
<text text-anchor="middle" x="319" y="-99.8" font-family="Times,serif" font-size="14.00">VliegtuigenModule</text>
</g>
<!-- VliegtuigenModule&#45;&gt;AppModule -->
<g id="edge8" class="edge">
<title>VliegtuigenModule&#45;&gt;AppModule</title>
<path fill="none" stroke="black" d="M319,-122.13C319,-142.57 319,-173 319,-173 319,-173 672.18,-173 672.18,-173"/>
<polygon fill="black" stroke="black" points="672.18,-176.5 682.18,-173 672.18,-169.5 672.18,-176.5"/>
</g>
<!-- TypeOrmConfigService -->
<g id="node10" class="node">
<title>TypeOrmConfigService</title>
<ellipse fill="#fdb462" stroke="black" cx="128" cy="-104" rx="104.21" ry="18"/>
<text text-anchor="middle" x="128" y="-99.8" font-family="Times,serif" font-size="14.00">TypeOrmConfigService</text>
</g>
<!-- TypeOrmConfigService&#45;&gt;AppModule -->
<g id="edge9" class="edge">
<title>TypeOrmConfigService&#45;&gt;AppModule</title>
<path fill="none" stroke="black" d="M128,-122.01C128,-144.49 128,-180 128,-180 128,-180 672.09,-180 672.09,-180"/>
<polygon fill="black" stroke="black" points="672.09,-183.5 682.09,-180 672.09,-176.5 672.09,-183.5"/>
</g>
</g>
</svg>
